<svg id="visual" viewBox="0 0 960 100" width="960" height="100" xmlns="http://www.w3.org/2000/svg" xmlns:xlink="http://www.w3.org/1999/xlink" version="1.1"><rect x="0" y="0" width="960" height="100" fill="#292929"></rect><path d="M0 79L17.8 78C35.7 77 71.3 75 106.8 73C142.3 71 177.7 69 213.2 65.5C248.7 62 284.3 57 320 55C355.7 53 391.3 54 426.8 59.3C462.3 64.7 497.7 74.3 533.2 75.2C568.7 76 604.3 68 640 64.7C675.7 61.3 711.3 62.7 746.8 63C782.3 63.3 817.7 62.7 853.2 63.8C888.7 65 924.3 68 942.2 69.5L960 71L960 0L942.2 0C924.3 0 888.7 0 853.2 0C817.7 0 782.3 0 746.8 0C711.3 0 675.7 0 640 0C604.3 0 568.7 0 533.2 0C497.7 0 462.3 0 426.8 0C391.3 0 355.7 0 320 0C284.3 0 248.7 0 213.2 0C177.7 0 142.3 0 106.8 0C71.3 0 35.7 0 17.8 0L0 0Z" fill="#ee6e1c"></path><path d="M0 38L17.8 41.3C35.7 44.7 71.3 51.3 106.8 53C142.3 54.7 177.7 51.3 213.2 51.5C248.7 51.7 284.3 55.3 320 54.3C355.7 53.3 391.3 47.7 426.8 47.5C462.3 47.3 497.7 52.7 533.2 53.7C568.7 54.7 604.3 51.3 640 51.2C675.7 51 711.3 54 746.8 54.3C782.3 54.7 817.7 52.3 853.2 52.7C888.7 53 924.3 56 942.2 57.5L960 59L960 0L942.2 0C924.3 0 888.7 0 853.2 0C817.7 0 782.3 0 746.8 0C711.3 0 675.7 0 640 0C604.3 0 568.7 0 533.2 0C497.7 0 462.3 0 426.8 0C391.3 0 355.7 0 320 0C284.3 0 248.7 0 213.2 0C177.7 0 142.3 0 106.8 0C71.3 0 35.7 0 17.8 0L0 0Z" fill="#f58f09"></path><path d="M0 42L17.8 40.3C35.7 38.7 71.3 35.3 106.8 34C142.3 32.7 177.7 33.3 213.2 35.7C248.7 38 284.3 42 320 42.7C355.7 43.3 391.3 40.7 426.8 36.5C462.3 32.3 497.7 26.7 533.2 24.3C568.7 22 604.3 23 640 25C675.7 27 711.3 30 746.8 32C782.3 34 817.7 35 853.2 36.8C888.7 38.7 924.3 41.3 942.2 42.7L960 44L960 0L942.2 0C924.3 0 888.7 0 853.2 0C817.7 0 782.3 0 746.8 0C711.3 0 675.7 0 640 0C604.3 0 568.7 0 533.2 0C497.7 0 462.3 0 426.8 0C391.3 0 355.7 0 320 0C284.3 0 248.7 0 213.2 0C177.7 0 142.3 0 106.8 0C71.3 0 35.7 0 17.8 0L0 0Z" fill="#f6af00"></path><path d="M0 12L17.8 12.5C35.7 13 71.3 14 106.8 16.7C142.3 19.3 177.7 23.7 213.2 22.7C248.7 21.7 284.3 15.3 320 13.3C355.7 11.3 391.3 13.7 426.8 16.8C462.3 20 497.7 24 533.2 23.2C568.7 22.3 604.3 16.7 640 14C675.7 11.3 711.3 11.7 746.8 13.8C782.3 16 817.7 20 853.2 22.2C888.7 24.3 924.3 24.7 942.2 24.8L960 25L960 0L942.2 0C924.3 0 888.7 0 853.2 0C817.7 0 782.3 0 746.8 0C711.3 0 675.7 0 640 0C604.3 0 568.7 0 533.2 0C497.7 0 462.3 0 426.8 0C391.3 0 355.7 0 320 0C284.3 0 248.7 0 213.2 0C177.7 0 142.3 0 106.8 0C71.3 0 35.7 0 17.8 0L0 0Z" fill="#f3cf00"></path></svg>