<svg id="visual" viewBox="0 0 960 100" width="960" height="100" xmlns="http://www.w3.org/2000/svg" xmlns:xlink="http://www.w3.org/1999/xlink" version="1.1"><rect x="0" y="0" width="960" height="100" fill="#292929"></rect><path d="M0 22L17.8 22C35.7 22 71.3 22 106.8 22C142.3 22 177.7 22 213.2 23.3C248.7 24.7 284.3 27.3 320 28.8C355.7 30.3 391.3 30.7 426.8 31.3C462.3 32 497.7 33 533.2 34.8C568.7 36.7 604.3 39.3 640 39.3C675.7 39.3 711.3 36.7 746.8 33.5C782.3 30.3 817.7 26.7 853.2 24C888.7 21.3 924.3 19.7 942.2 18.8L960 18L960 101L942.2 101C924.3 101 888.7 101 853.2 101C817.7 101 782.3 101 746.8 101C711.3 101 675.7 101 640 101C604.3 101 568.7 101 533.2 101C497.7 101 462.3 101 426.8 101C391.3 101 355.7 101 320 101C284.3 101 248.7 101 213.2 101C177.7 101 142.3 101 106.8 101C71.3 101 35.7 101 17.8 101L0 101Z" fill="#ee6e1c"></path><path d="M0 45L17.8 45C35.7 45 71.3 45 106.8 45.7C142.3 46.3 177.7 47.7 213.2 46.3C248.7 45 284.3 41 320 40.2C355.7 39.3 391.3 41.7 426.8 41.7C462.3 41.7 497.7 39.3 533.2 40.5C568.7 41.7 604.3 46.3 640 49C675.7 51.7 711.3 52.3 746.8 51.8C782.3 51.3 817.7 49.7 853.2 47.7C888.7 45.7 924.3 43.3 942.2 42.2L960 41L960 101L942.2 101C924.3 101 888.7 101 853.2 101C817.7 101 782.3 101 746.8 101C711.3 101 675.7 101 640 101C604.3 101 568.7 101 533.2 101C497.7 101 462.3 101 426.8 101C391.3 101 355.7 101 320 101C284.3 101 248.7 101 213.2 101C177.7 101 142.3 101 106.8 101C71.3 101 35.7 101 17.8 101L0 101Z" fill="#f58f09"></path><path d="M0 60L17.8 61.3C35.7 62.7 71.3 65.3 106.8 64.8C142.3 64.3 177.7 60.7 213.2 61C248.7 61.3 284.3 65.7 320 68.2C355.7 70.7 391.3 71.3 426.8 68.7C462.3 66 497.7 60 533.2 60C568.7 60 604.3 66 640 69C675.7 72 711.3 72 746.8 71.2C782.3 70.3 817.7 68.7 853.2 68C888.7 67.3 924.3 67.7 942.2 67.8L960 68L960 101L942.2 101C924.3 101 888.7 101 853.2 101C817.7 101 782.3 101 746.8 101C711.3 101 675.7 101 640 101C604.3 101 568.7 101 533.2 101C497.7 101 462.3 101 426.8 101C391.3 101 355.7 101 320 101C284.3 101 248.7 101 213.2 101C177.7 101 142.3 101 106.8 101C71.3 101 35.7 101 17.8 101L0 101Z" fill="#f6af00"></path><path d="M0 75L17.8 76.3C35.7 77.7 71.3 80.3 106.8 81.2C142.3 82 177.7 81 213.2 79.5C248.7 78 284.3 76 320 75.3C355.7 74.7 391.3 75.3 426.8 77C462.3 78.7 497.7 81.3 533.2 81.5C568.7 81.7 604.3 79.3 640 79.5C675.7 79.7 711.3 82.3 746.8 84C782.3 85.7 817.7 86.3 853.2 84.5C888.7 82.7 924.3 78.3 942.2 76.2L960 74L960 101L942.2 101C924.3 101 888.7 101 853.2 101C817.7 101 782.3 101 746.8 101C711.3 101 675.7 101 640 101C604.3 101 568.7 101 533.2 101C497.7 101 462.3 101 426.8 101C391.3 101 355.7 101 320 101C284.3 101 248.7 101 213.2 101C177.7 101 142.3 101 106.8 101C71.3 101 35.7 101 17.8 101L0 101Z" fill="#f3cf00"></path></svg>