<svg id="visual" viewBox="0 0 960 100" width="960" height="100" xmlns="http://www.w3.org/2000/svg" xmlns:xlink="http://www.w3.org/1999/xlink" version="1.1"><rect x="0" y="0" width="960" height="100" fill="#1B1B1B"></rect><path d="M0 51L11.5 48.8C23 46.7 46 42.3 68.8 44.3C91.7 46.3 114.3 54.7 137.2 54.3C160 54 183 45 205.8 44.3C228.7 43.7 251.3 51.3 274.2 51.5C297 51.7 320 44.3 342.8 44.2C365.7 44 388.3 51 411.2 54.8C434 58.7 457 59.3 480 58C503 56.7 526 53.3 548.8 48.8C571.7 44.3 594.3 38.7 617.2 40.7C640 42.7 663 52.3 685.8 52.5C708.7 52.7 731.3 43.3 754.2 41.3C777 39.3 800 44.7 822.8 47C845.7 49.3 868.3 48.7 891.2 45.3C914 42 937 36 948.5 33L960 30L960 101L948.5 101C937 101 914 101 891.2 101C868.3 101 845.7 101 822.8 101C800 101 777 101 754.2 101C731.3 101 708.7 101 685.8 101C663 101 640 101 617.2 101C594.3 101 571.7 101 548.8 101C526 101 503 101 480 101C457 101 434 101 411.2 101C388.3 101 365.7 101 342.8 101C320 101 297 101 274.2 101C251.3 101 228.7 101 205.8 101C183 101 160 101 137.2 101C114.3 101 91.7 101 68.8 101C46 101 23 101 11.5 101L0 101Z" fill="#4fb286"></path><path d="M0 44L11.5 47C23 50 46 56 68.8 58.8C91.7 61.7 114.3 61.3 137.2 58.3C160 55.3 183 49.7 205.8 51.3C228.7 53 251.3 62 274.2 63.7C297 65.3 320 59.7 342.8 54.5C365.7 49.3 388.3 44.7 411.2 44.3C434 44 457 48 480 52.3C503 56.7 526 61.3 548.8 63C571.7 64.7 594.3 63.3 617.2 61.7C640 60 663 58 685.8 57.2C708.7 56.3 731.3 56.7 754.2 54.2C777 51.7 800 46.3 822.8 46.3C845.7 46.3 868.3 51.7 891.2 55.8C914 60 937 63 948.5 64.5L960 66L960 101L948.5 101C937 101 914 101 891.2 101C868.3 101 845.7 101 822.8 101C800 101 777 101 754.2 101C731.3 101 708.7 101 685.8 101C663 101 640 101 617.2 101C594.3 101 571.7 101 548.8 101C526 101 503 101 480 101C457 101 434 101 411.2 101C388.3 101 365.7 101 342.8 101C320 101 297 101 274.2 101C251.3 101 228.7 101 205.8 101C183 101 160 101 137.2 101C114.3 101 91.7 101 68.8 101C46 101 23 101 11.5 101L0 101Z" fill="#19a69b"></path><path d="M0 74L11.5 73.5C23 73 46 72 68.8 72C91.7 72 114.3 73 137.2 72.3C160 71.7 183 69.3 205.8 68.3C228.7 67.3 251.3 67.7 274.2 69.5C297 71.3 320 74.7 342.8 74.3C365.7 74 388.3 70 411.2 69.2C434 68.3 457 70.7 480 69.7C503 68.7 526 64.3 548.8 63.7C571.7 63 594.3 66 617.2 67.7C640 69.3 663 69.7 685.8 67.5C708.7 65.3 731.3 60.7 754.2 59.7C777 58.7 800 61.3 822.8 64.2C845.7 67 868.3 70 891.2 69.7C914 69.3 937 65.7 948.5 63.8L960 62L960 101L948.5 101C937 101 914 101 891.2 101C868.3 101 845.7 101 822.8 101C800 101 777 101 754.2 101C731.3 101 708.7 101 685.8 101C663 101 640 101 617.2 101C594.3 101 571.7 101 548.8 101C526 101 503 101 480 101C457 101 434 101 411.2 101C388.3 101 365.7 101 342.8 101C320 101 297 101 274.2 101C251.3 101 228.7 101 205.8 101C183 101 160 101 137.2 101C114.3 101 91.7 101 68.8 101C46 101 23 101 11.5 101L0 101Z" fill="#0097a6"></path><path d="M0 84L11.5 83.8C23 83.7 46 83.3 68.8 81.5C91.7 79.7 114.3 76.3 137.2 75.3C160 74.3 183 75.7 205.8 76.8C228.7 78 251.3 79 274.2 76.8C297 74.7 320 69.3 342.8 70.5C365.7 71.7 388.3 79.3 411.2 81.7C434 84 457 81 480 80.8C503 80.7 526 83.3 548.8 83.3C571.7 83.3 594.3 80.7 617.2 79C640 77.3 663 76.7 685.8 77.7C708.7 78.7 731.3 81.3 754.2 80.7C777 80 800 76 822.8 75.7C845.7 75.3 868.3 78.7 891.2 78.2C914 77.7 937 73.3 948.5 71.2L960 69L960 101L948.5 101C937 101 914 101 891.2 101C868.3 101 845.7 101 822.8 101C800 101 777 101 754.2 101C731.3 101 708.7 101 685.8 101C663 101 640 101 617.2 101C594.3 101 571.7 101 548.8 101C526 101 503 101 480 101C457 101 434 101 411.2 101C388.3 101 365.7 101 342.8 101C320 101 297 101 274.2 101C251.3 101 228.7 101 205.8 101C183 101 160 101 137.2 101C114.3 101 91.7 101 68.8 101C46 101 23 101 11.5 101L0 101Z" fill="#0086a9"></path><path d="M0 83L11.5 84C23 85 46 87 68.8 86.8C91.7 86.7 114.3 84.3 137.2 82.3C160 80.3 183 78.7 205.8 77.8C228.7 77 251.3 77 274.2 79.7C297 82.3 320 87.7 342.8 90.5C365.7 93.3 388.3 93.7 411.2 92.8C434 92 457 90 480 89.7C503 89.3 526 90.7 548.8 91.2C571.7 91.7 594.3 91.3 617.2 91.7C640 92 663 93 685.8 93.5C708.7 94 731.3 94 754.2 93.5C777 93 800 92 822.8 91.8C845.7 91.7 868.3 92.3 891.2 92.5C914 92.7 937 92.3 948.5 92.2L960 92L960 101L948.5 101C937 101 914 101 891.2 101C868.3 101 845.7 101 822.8 101C800 101 777 101 754.2 101C731.3 101 708.7 101 685.8 101C663 101 640 101 617.2 101C594.3 101 571.7 101 548.8 101C526 101 503 101 480 101C457 101 434 101 411.2 101C388.3 101 365.7 101 342.8 101C320 101 297 101 274.2 101C251.3 101 228.7 101 205.8 101C183 101 160 101 137.2 101C114.3 101 91.7 101 68.8 101C46 101 23 101 11.5 101L0 101Z" fill="#2274a5"></path></svg>