<svg id="visual" viewBox="0 0 960 100" width="960" height="100" xmlns="http://www.w3.org/2000/svg" xmlns:xlink="http://www.w3.org/1999/xlink" version="1.1"><rect x="0" y="0" width="960" height="100" fill="#1B1B1B"></rect><path d="M0 88L8.8 81.2C17.7 74.3 35.3 60.7 53.2 60.5C71 60.3 89 73.7 106.8 79.8C124.7 86 142.3 85 160 78.7C177.7 72.3 195.3 60.7 213.2 61.2C231 61.7 249 74.3 266.8 73.2C284.7 72 302.3 57 320 50C337.7 43 355.3 44 373.2 50.7C391 57.3 409 69.7 426.8 70C444.7 70.3 462.3 58.7 480 59.5C497.7 60.3 515.3 73.7 533.2 78.2C551 82.7 569 78.3 586.8 74.8C604.7 71.3 622.3 68.7 640 68C657.7 67.3 675.3 68.7 693.2 67.7C711 66.7 729 63.3 746.8 60.8C764.7 58.3 782.3 56.7 800 58C817.7 59.3 835.3 63.7 853.2 61.3C871 59 889 50 906.8 49.5C924.7 49 942.3 57 951.2 61L960 65L960 0L951.2 0C942.3 0 924.7 0 906.8 0C889 0 871 0 853.2 0C835.3 0 817.7 0 800 0C782.3 0 764.7 0 746.8 0C729 0 711 0 693.2 0C675.3 0 657.7 0 640 0C622.3 0 604.7 0 586.8 0C569 0 551 0 533.2 0C515.3 0 497.7 0 480 0C462.3 0 444.7 0 426.8 0C409 0 391 0 373.2 0C355.3 0 337.7 0 320 0C302.3 0 284.7 0 266.8 0C249 0 231 0 213.2 0C195.3 0 177.7 0 160 0C142.3 0 124.7 0 106.8 0C89 0 71 0 53.2 0C35.3 0 17.7 0 8.8 0L0 0Z" fill="#4fb286"></path><path d="M0 48L8.8 48.2C17.7 48.3 35.3 48.7 53.2 48.8C71 49 89 49 106.8 49.5C124.7 50 142.3 51 160 50.2C177.7 49.3 195.3 46.7 213.2 44.2C231 41.7 249 39.3 266.8 38.2C284.7 37 302.3 37 320 39C337.7 41 355.3 45 373.2 46.3C391 47.7 409 46.3 426.8 49.5C444.7 52.7 462.3 60.3 480 61C497.7 61.7 515.3 55.3 533.2 54.7C551 54 569 59 586.8 62.2C604.7 65.3 622.3 66.7 640 62.7C657.7 58.7 675.3 49.3 693.2 48.3C711 47.3 729 54.7 746.8 56.3C764.7 58 782.3 54 800 53C817.7 52 835.3 54 853.2 52C871 50 889 44 906.8 42.3C924.7 40.7 942.3 43.3 951.2 44.7L960 46L960 0L951.2 0C942.3 0 924.7 0 906.8 0C889 0 871 0 853.2 0C835.3 0 817.7 0 800 0C782.3 0 764.7 0 746.8 0C729 0 711 0 693.2 0C675.3 0 657.7 0 640 0C622.3 0 604.7 0 586.8 0C569 0 551 0 533.2 0C515.3 0 497.7 0 480 0C462.3 0 444.7 0 426.8 0C409 0 391 0 373.2 0C355.3 0 337.7 0 320 0C302.3 0 284.7 0 266.8 0C249 0 231 0 213.2 0C195.3 0 177.7 0 160 0C142.3 0 124.7 0 106.8 0C89 0 71 0 53.2 0C35.3 0 17.7 0 8.8 0L0 0Z" fill="#02a1a0"></path><path d="M0 23L8.8 25.2C17.7 27.3 35.3 31.7 53.2 34.3C71 37 89 38 106.8 35.8C124.7 33.7 142.3 28.3 160 27.7C177.7 27 195.3 31 213.2 30.5C231 30 249 25 266.8 24.5C284.7 24 302.3 28 320 31.7C337.7 35.3 355.3 38.7 373.2 40.5C391 42.3 409 42.7 426.8 39C444.7 35.3 462.3 27.7 480 24C497.7 20.3 515.3 20.7 533.2 20.3C551 20 569 19 586.8 24C604.7 29 622.3 40 640 43.2C657.7 46.3 675.3 41.7 693.2 41.2C711 40.7 729 44.3 746.8 45C764.7 45.7 782.3 43.3 800 39.7C817.7 36 835.3 31 853.2 27.2C871 23.3 889 20.7 906.8 21.7C924.7 22.7 942.3 27.3 951.2 29.7L960 32L960 0L951.2 0C942.3 0 924.7 0 906.8 0C889 0 871 0 853.2 0C835.3 0 817.7 0 800 0C782.3 0 764.7 0 746.8 0C729 0 711 0 693.2 0C675.3 0 657.7 0 640 0C622.3 0 604.7 0 586.8 0C569 0 551 0 533.2 0C515.3 0 497.7 0 480 0C462.3 0 444.7 0 426.8 0C409 0 391 0 373.2 0C355.3 0 337.7 0 320 0C302.3 0 284.7 0 266.8 0C249 0 231 0 213.2 0C195.3 0 177.7 0 160 0C142.3 0 124.7 0 106.8 0C89 0 71 0 53.2 0C35.3 0 17.7 0 8.8 0L0 0Z" fill="#008ca9"></path><path d="M0 18L8.8 19.2C17.7 20.3 35.3 22.7 53.2 24C71 25.3 89 25.7 106.8 24C124.7 22.3 142.3 18.7 160 15.3C177.7 12 195.3 9 213.2 8.8C231 8.7 249 11.3 266.8 12.8C284.7 14.3 302.3 14.7 320 14.7C337.7 14.7 355.3 14.3 373.2 15.8C391 17.3 409 20.7 426.8 21.3C444.7 22 462.3 20 480 20.2C497.7 20.3 515.3 22.7 533.2 21C551 19.3 569 13.7 586.8 12.5C604.7 11.3 622.3 14.7 640 16.5C657.7 18.3 675.3 18.7 693.2 19.5C711 20.3 729 21.7 746.8 23.5C764.7 25.3 782.3 27.7 800 26.5C817.7 25.3 835.3 20.7 853.2 18.5C871 16.3 889 16.7 906.8 18.8C924.7 21 942.3 25 951.2 27L960 29L960 0L951.2 0C942.3 0 924.7 0 906.8 0C889 0 871 0 853.2 0C835.3 0 817.7 0 800 0C782.3 0 764.7 0 746.8 0C729 0 711 0 693.2 0C675.3 0 657.7 0 640 0C622.3 0 604.7 0 586.8 0C569 0 551 0 533.2 0C515.3 0 497.7 0 480 0C462.3 0 444.7 0 426.8 0C409 0 391 0 373.2 0C355.3 0 337.7 0 320 0C302.3 0 284.7 0 266.8 0C249 0 231 0 213.2 0C195.3 0 177.7 0 160 0C142.3 0 124.7 0 106.8 0C89 0 71 0 53.2 0C35.3 0 17.7 0 8.8 0L0 0Z" fill="#2274a5"></path></svg>